<svg xmlns="http://www.w3.org/2000/svg" fill="none" viewBox="0 0 485 452"><path fill="#F97316" stroke="#F97316" d="M126.695 391.68c22.147-115.42 11.371-141.432-94.59-185.248 116.614-14.603 139.86-33.518 148.787-147.833 49.925 106.394 73.956 121.152 185.435 94.316-85.76 80.359-92.148 107.527-32.177 205.257-102.927-56.729-133.04-53.728-207.455 33.508Z"/><path fill="#F97316" d="M176.859 316h42.792c19.753 0 31.96-10.787 31.96-25.746 0-12.828-9.455-21.218-21.129-21.662v-.887c10.52-2.087 17.578-9.855 17.578-19.887 0-13.849-11.009-22.727-31.783-22.727h-39.418V316Zm24.681-19.709v-19.176h11.896c7.502 0 12.074 3.551 12.074 9.943 0 6.082-4.128 9.233-12.429 9.233H201.54Zm0-34.446v-17.4h10.476c6.125 0 10.653 3.107 10.653 8.7 0 5.593-4.528 8.7-11.008 8.7H201.54Zm78.169 55.22c8.878 0 15.581-3.018 19.709-10.653h.533V316h22.904v-46.697c0-12.607-11.94-22.373-31.427-22.373-20.375 0-30.407 10.654-31.25 23.083h22.55c.577-4.217 3.684-6.215 8.345-6.215 4.261 0 7.28 1.953 7.28 5.505v.177c0 3.951-4.351 5.194-15.803 6.037-14.071 1.021-25.035 6.703-25.035 21.662 0 13.583 9.144 19.886 22.194 19.886Zm7.99-15.447c-4.172 0-7.102-2.042-7.102-5.859 0-3.507 2.486-6.215 8.168-7.103 3.906-.621 7.191-1.42 9.765-2.486v5.682c0 6.215-5.282 9.766-10.831 9.766Zm71.367-23.97c.044-6.747 3.862-10.831 9.943-10.831 6.17 0 9.81 4.084 9.766 10.831V316h24.503v-43.501c.044-14.826-9.322-25.569-23.793-25.569-10.032 0-17.978 5.238-20.952 13.85h-.71v-12.962h-23.26V316h24.503v-38.352Zm89.156 65.341c21.573 0 35.866-9.855 35.866-27.167v-68.004h-24.503v11.896h-.532c-2.664-6.924-9.056-12.784-19.176-12.784-13.495 0-26.634 10.299-26.634 34.979 0 23.615 12.251 33.203 26.811 33.203 9.233 0 16.513-3.906 19.176-10.831h.71v11.541c0 8.035-4.66 10.654-11.008 10.654-5.638 0-9.766-1.687-10.476-6.037h-23.615c.932 13.139 12.873 22.55 33.381 22.55Zm.887-45.277c-6.747 0-10.653-5.682-10.653-15.803s3.906-16.158 10.653-16.158c6.748 0 10.831 6.037 10.831 16.158 0 9.943-4.083 15.803-10.831 15.803Z"/><path fill="#fff" fill-rule="evenodd" d="M296.075 247.022a54.315 54.315 0 0 0-4.506-.183c-20.375 0-30.407 10.654-31.25 23.083h22.549c.577-4.217 3.685-6.215 8.345-6.215 1.36 0 2.593.199 3.642.585-.279-5.903.123-11.621 1.22-17.27Zm-.304 26.188c-2.437 1.14-6.633 1.741-13.08 2.216-14.072 1.021-25.036 6.703-25.036 21.662 0 13.583 9.144 19.886 22.195 19.886 8.878 0 15.58-3.018 19.709-10.653h.532v9.588h10.478c-5.277-10.779-9.254-20.596-11.898-29.775v5.627c0 6.215-5.283 9.766-10.831 9.766-4.173 0-7.102-2.042-7.102-5.859 0-3.507 2.485-6.215 8.167-7.103 3.899-.62 7.179-1.417 9.752-2.48-1.274-4.428-2.237-8.707-2.886-12.875Zm-75.98 42.699H177V225h39.418c20.774 0 31.782 8.878 31.782 22.727 0 10.032-7.058 17.8-17.578 19.887v.887c11.675.444 21.129 8.834 21.129 21.662 0 14.96-12.207 25.746-31.96 25.746Zm-18.111-38.885V296.2h11.542c8.3 0 12.429-3.151 12.429-9.233 0-6.392-4.573-9.943-12.074-9.943H201.68Zm0-32.67v17.4h10.121c6.481 0 11.009-3.107 11.009-8.7 0-5.593-4.528-8.7-10.654-8.7H201.68Z" clip-rule="evenodd"/></svg>
